<?xml version="1.0" standalone="no"?>
<!DOCTYPE svg PUBLIC "-//W3C//DTD SVG 20010904//EN"
 "http://www.w3.org/TR/2001/REC-SVG-20010904/DTD/svg10.dtd">
<svg version="1.0" xmlns="http://www.w3.org/2000/svg"
 width="860.000000pt" height="936.000000pt" viewBox="0 0 860.000000 936.000000"
 preserveAspectRatio="xMidYMid meet">
<metadata>
Created by potrace 1.16, written by Peter Selinger 2001-2019
</metadata>
<g transform="translate(0.000000,936.000000) scale(0.100000,-0.100000)"
fill="#000000" stroke="none">
<path d="M2025 8939 c-212 -35 -403 -198 -475 -403 -35 -98 -41 -194 -38 -577
3 -344 4 -368 22 -388 26 -28 79 -28 106 1 19 21 20 33 20 418 0 429 3 457 56
562 34 67 126 158 195 193 103 53 123 55 547 55 448 0 452 1 452 75 0 75 -4
75 -447 74 -213 -1 -410 -5 -438 -10z"/>
<path d="M5717 8930 c-37 -29 -37 -80 -1 -109 26 -20 37 -21 423 -21 230 0
414 -5 440 -11 132 -30 248 -125 314 -257 l42 -85 5 -428 c5 -402 6 -428 24
-448 28 -31 79 -28 106 6 21 27 21 31 18 448 -4 370 -6 427 -22 475 -67 206
-220 359 -426 426 -48 16 -105 18 -475 22 -417 3 -421 3 -448 -18z"/>
<path d="M4237 8903 c18 -2 50 -2 70 0 21 2 7 4 -32 4 -38 0 -55 -2 -38 -4z"/>
<path d="M4053 8893 c9 -2 23 -2 30 0 6 3 -1 5 -18 5 -16 0 -22 -2 -12 -5z"/>
<path d="M4508 8893 c6 -2 18 -2 25 0 6 3 1 5 -13 5 -14 0 -19 -2 -12 -5z"/>
<path d="M3948 8883 c7 -3 16 -2 19 1 4 3 -2 6 -13 5 -11 0 -14 -3 -6 -6z"/>
<path d="M4608 8883 c6 -2 18 -2 25 0 6 3 1 5 -13 5 -14 0 -19 -2 -12 -5z"/>
<path d="M3960 7935 c-24 -25 -42 -45 -39 -45 3 0 25 20 49 45 24 25 42 45 39
45 -3 0 -25 -20 -49 -45z"/>
<path d="M4022 7945 c0 -16 2 -22 5 -12 2 9 2 23 0 30 -3 6 -5 -1 -5 -18z"/>
<path d="M4906 7957 c3 -10 9 -15 12 -12 3 3 0 11 -7 18 -10 9 -11 8 -5 -6z"/>
<path d="M4770 7865 c-24 -25 -42 -45 -39 -45 3 0 25 20 49 45 24 25 42 45 39
45 -3 0 -25 -20 -49 -45z"/>
<path d="M3864 7848 l-29 -33 33 29 c17 17 32 31 32 33 0 8 -8 1 -36 -29z"/>
<path d="M4699 7803 c-13 -16 -12 -17 4 -4 9 7 17 15 17 17 0 8 -8 3 -21 -13z"/>
<path d="M3799 7793 c-13 -16 -12 -17 4 -4 16 13 21 21 13 21 -2 0 -10 -8 -17
-17z"/>
<path d="M3749 7753 c-13 -16 -12 -17 4 -4 16 13 21 21 13 21 -2 0 -10 -8 -17
-17z"/>
<path d="M4575 7730 c-3 -6 1 -7 9 -4 18 7 21 14 7 14 -6 0 -13 -4 -16 -10z"/>
<path d="M4530 7710 c-8 -5 -10 -10 -5 -10 6 0 17 5 25 10 8 5 11 10 5 10 -5
0 -17 -5 -25 -10z"/>
<path d="M5080 7676 c0 -2 8 -10 18 -17 15 -13 16 -12 3 4 -13 16 -21 21 -21
13z"/>
<path d="M3590 7639 c-22 -18 -22 -19 -3 -10 12 6 25 16 28 21 9 15 3 12 -25
-11z"/>
<path d="M5125 7620 c10 -11 20 -20 23 -20 3 0 -3 9 -13 20 -10 11 -20 20 -23
20 -3 0 3 -9 13 -20z"/>
<path d="M3889 7613 c-13 -16 -12 -17 4 -4 9 7 17 15 17 17 0 8 -8 3 -21 -13z"/>
<path d="M4208 7603 c7 -3 16 -2 19 1 4 3 -2 6 -13 5 -11 0 -14 -3 -6 -6z"/>
<path d="M4118 7583 c7 -3 16 -2 19 1 4 3 -2 6 -13 5 -11 0 -14 -3 -6 -6z"/>
<path d="M3844 7558 l-19 -23 23 19 c21 18 27 26 19 26 -2 0 -12 -10 -23 -22z"/>
<path d="M4048 7573 c7 -3 16 -2 19 1 4 3 -2 6 -13 5 -11 0 -14 -3 -6 -6z"/>
<path d="M4263 7556 c-15 -20 -87 -42 -481 -146 -404 -107 -466 -121 -486
-110 -37 19 -68 -2 -64 -45 2 -27 -29 -87 -202 -379 -136 -231 -210 -346 -221
-346 -44 0 -51 -66 -10 -86 37 -19 159 -303 156 -364 -3 -40 -23 -74 -201
-332 -115 -166 -206 -288 -215 -288 -8 0 -23 -6 -34 -13 -25 -19 -13 -65 19
-73 19 -4 40 -41 109 -182 47 -97 194 -396 326 -664 209 -425 239 -492 234
-522 -4 -28 -1 -36 16 -45 13 -8 27 -8 37 -3 12 7 92 -36 320 -171 166 -100
302 -183 302 -186 -4 -43 39 -66 70 -38 25 23 703 25 722 2 7 -8 24 -15 37
-15 18 0 28 8 36 31 10 26 56 58 308 209 223 133 301 175 313 168 10 -5 24 -5
37 3 17 9 20 17 16 45 -5 29 23 93 212 476 119 244 266 543 325 665 87 177
113 223 132 227 45 12 41 73 -5 82 -21 5 -65 61 -225 294 -166 240 -199 294
-201 327 -3 50 128 359 155 366 30 8 42 40 24 65 -8 12 -23 22 -32 22 -26 0
-427 684 -427 729 0 43 -24 60 -58 42 -23 -12 -72 -1 -492 110 -417 111 -468
126 -476 147 -11 30 -52 29 -76 -2z m-211 -477 c-157 -303 -225 -425 -238
-427 -11 -2 -26 -12 -34 -22 -13 -15 -87 -27 -470 -74 -250 -30 -458 -52 -463
-47 -12 12 405 710 425 711 9 0 25 11 35 25 16 21 78 40 483 148 256 69 469
121 473 117 5 -4 -91 -198 -211 -431z m788 306 c380 -101 437 -119 453 -140
10 -14 26 -25 35 -25 21 0 438 -698 425 -711 -4 -4 -213 17 -463 48 -383 46
-457 58 -470 73 -8 10 -23 20 -33 22 -13 2 -84 131 -237 427 -121 233 -217
428 -215 432 3 4 20 3 38 -1 17 -5 228 -61 467 -125z m-312 -305 c194 -375
215 -420 218 -470 2 -49 -8 -83 -99 -317 -84 -217 -106 -263 -124 -268 -25 -6
-33 -31 -19 -63 7 -18 -12 -91 -95 -362 -57 -187 -106 -340 -109 -340 -3 0
-52 154 -109 342 -87 285 -102 344 -92 360 16 25 6 52 -22 65 -34 16 -225 517
-223 583 2 42 58 166 166 365 15 28 82 157 150 288 67 131 127 236 132 235 6
-2 107 -190 226 -418z m-743 -500 c3 -5 14 -10 23 -10 14 0 42 -62 124 -272
58 -150 104 -275 103 -277 -2 -2 -99 56 -214 129 -148 92 -211 137 -211 150 0
43 -67 54 -85 13 -5 -13 -28 -30 -50 -39 -22 -9 -131 -52 -241 -95 -181 -71
-204 -77 -227 -66 -21 9 -41 45 -97 170 -64 145 -78 196 -52 198 4 0 196 24
427 54 448 57 490 61 500 45z m1524 -45 c423 -53 451 -58 450 -90 0 -5 -30
-79 -68 -164 -52 -118 -74 -157 -94 -168 -24 -12 -42 -7 -259 78 -128 50 -238
93 -243 95 -6 2 -15 14 -20 27 -6 13 -21 23 -38 25 -23 3 -30 -2 -41 -30 -12
-27 -50 -55 -221 -162 -113 -70 -208 -127 -210 -125 -1 2 18 58 45 124 26 66
73 186 105 268 60 155 75 174 135 176 14 0 220 -24 459 -54z m-1744 -277 c6 0
15 1 22 3 14 5 432 -252 433 -266 0 -5 -112 -39 -250 -74 -201 -51 -252 -61
-264 -51 -9 7 -27 9 -43 6 -23 -5 -68 12 -225 89 -109 52 -200 99 -202 104 -3
5 81 43 187 84 105 42 215 85 242 96 28 11 59 18 70 15 11 -3 25 -6 30 -6z
m1490 4 c18 8 69 -9 266 -85 134 -53 245 -100 246 -104 2 -5 -88 -53 -199
-106 -158 -75 -209 -95 -231 -91 -15 4 -33 1 -42 -6 -12 -10 -63 0 -265 51
-137 35 -248 69 -247 74 2 6 98 69 213 141 141 89 214 129 223 124 8 -4 24 -3
36 2z m-1822 -317 c109 -52 197 -99 197 -105 0 -5 9 -19 20 -30 18 -18 20 -47
34 -467 9 -246 18 -514 22 -595 5 -111 4 -148 -5 -148 -7 0 -217 178 -468 395
-406 352 -456 399 -458 427 -3 26 29 77 197 319 138 199 207 289 222 292 11 2
26 5 32 6 6 0 99 -42 207 -94z m2366 89 c28 -6 54 -40 231 -295 181 -263 198
-292 193 -322 -5 -28 -68 -86 -455 -422 -247 -214 -457 -392 -465 -393 -13 -3
-15 11 -9 115 4 65 13 332 22 593 14 429 17 477 34 495 9 11 19 25 21 32 3 10
369 200 390 202 4 1 21 -2 38 -5z m-1565 -82 c3 -5 -43 -142 -101 -306 -93
-260 -109 -299 -131 -307 -22 -8 -24 -14 -18 -47 5 -32 -12 -81 -121 -354 -70
-175 -128 -316 -130 -314 -2 2 -13 266 -24 586 -19 533 -20 584 -5 592 9 5 16
15 16 22 0 8 80 34 233 74 236 61 272 68 281 54z m805 -53 c130 -33 238 -65
239 -70 2 -5 11 -16 19 -25 14 -14 14 -67 -1 -537 -9 -287 -19 -551 -22 -586
l-6 -64 -128 316 c-111 274 -127 322 -123 357 5 35 3 41 -18 48 -20 8 -39 52
-130 308 -59 164 -105 302 -102 307 8 13 33 8 272 -54z m-665 -305 c80 -260
102 -342 93 -351 -9 -9 -56 -4 -209 24 -191 36 -197 38 -203 62 -4 18 24 110
89 291 115 324 115 324 121 318 3 -2 52 -157 109 -344z m476 48 c82 -231 103
-302 96 -318 -8 -18 -35 -26 -205 -57 -154 -29 -198 -34 -207 -24 -8 9 15 98
94 355 58 188 108 342 111 342 3 0 53 -134 111 -298z m-1499 -775 c296 -255
327 -285 331 -317 4 -30 -13 -70 -116 -269 -67 -129 -127 -236 -134 -239 -8
-2 -47 68 -106 190 -51 106 -198 404 -325 662 -127 258 -231 471 -231 473 0 2
57 -46 128 -107 70 -61 274 -238 453 -393z m2868 471 c-7 -12 -153 -309 -325
-658 -171 -349 -317 -635 -323 -635 -7 0 -68 106 -136 236 -109 210 -122 240
-116 270 6 29 69 88 456 425 248 216 451 390 453 389 2 -2 -2 -14 -9 -27z
m-1951 -92 c101 -18 186 -37 189 -40 4 -4 -2 -15 -13 -25 -36 -36 -688 -580
-691 -578 -1 2 57 150 130 330 101 251 135 327 149 327 9 0 20 5 23 10 9 14 7
14 213 -24z m695 22 c23 -11 44 -56 157 -337 71 -179 129 -326 127 -327 -2 -2
-666 552 -696 581 -8 8 -12 17 -8 21 6 7 334 71 373 73 11 0 32 -5 47 -11z
m-76 -392 c215 -181 353 -303 351 -312 -2 -9 -149 -79 -352 -168 -290 -128
-353 -152 -368 -143 -13 9 -23 9 -36 1 -14 -9 -81 17 -366 142 -191 84 -351
156 -354 159 -4 3 -2 13 3 21 6 8 167 146 358 307 298 250 352 292 379 291 25
-1 94 -54 385 -298z m-778 -499 c261 -115 346 -157 352 -173 6 -17 -27 -75
-162 -290 -148 -234 -174 -270 -200 -277 -28 -7 -58 8 -329 170 -246 147 -299
182 -303 203 -8 38 236 507 266 513 12 2 24 5 27 5 3 1 160 -67 349 -151z
m1182 134 c4 -3 61 -112 127 -241 91 -177 119 -241 115 -261 -4 -22 -53 -55
-302 -202 -255 -152 -302 -176 -327 -171 -26 5 -50 39 -201 277 -133 211 -169
276 -163 292 5 15 98 60 351 172 334 147 374 161 400 134z m-602 -612 c120
-189 170 -277 166 -290 -6 -17 -24 -18 -355 -18 -334 0 -348 1 -353 19 -7 27
330 560 354 560 11 0 72 -88 188 -271z"/>
<path d="M3983 7563 c9 -2 23 -2 30 0 6 3 -1 5 -18 5 -16 0 -22 -2 -12 -5z"/>
<path d="M5235 7500 c38 -38 72 -70 74 -70 3 0 -26 32 -64 70 -38 39 -72 70
-74 70 -3 0 26 -31 64 -70z"/>
<path d="M3893 7553 c9 -2 23 -2 30 0 6 3 -1 5 -18 5 -16 0 -22 -2 -12 -5z"/>
<path d="M3338 7489 c-21 -11 -38 -22 -38 -24 0 -3 18 4 40 15 22 11 40 23 40
25 0 7 0 7 -42 -16z"/>
<path d="M3220 7430 c-9 -6 -10 -10 -3 -10 6 0 15 5 18 10 8 12 4 12 -15 0z"/>
<path d="M5340 7406 c0 -2 8 -10 18 -17 15 -13 16 -12 3 4 -13 16 -21 21 -21
13z"/>
<path d="M2825 7299 c-4 -6 -5 -12 -2 -15 2 -3 7 2 10 11 7 17 1 20 -8 4z"/>
<path d="M5530 7276 c0 -2 7 -7 16 -10 8 -3 12 -2 9 4 -6 10 -25 14 -25 6z"/>
<path d="M2811 7234 c0 -11 3 -14 6 -6 3 7 2 16 -1 19 -3 4 -6 -2 -5 -13z"/>
<path d="M5600 7240 c8 -5 20 -10 25 -10 6 0 3 5 -5 10 -8 5 -19 10 -25 10 -5
0 -3 -5 5 -10z"/>
<path d="M6201 7204 c0 -11 3 -14 6 -6 3 7 2 16 -1 19 -3 4 -6 -2 -5 -13z"/>
<path d="M2371 7184 c0 -11 3 -14 6 -6 3 7 2 16 -1 19 -3 4 -6 -2 -5 -13z"/>
<path d="M2802 7165 c0 -16 2 -22 5 -12 2 9 2 23 0 30 -3 6 -5 -1 -5 -18z"/>
<path d="M5798 7183 c7 -3 16 -2 19 1 4 3 -2 6 -13 5 -11 0 -14 -3 -6 -6z"/>
<path d="M5822 7140 c0 -19 2 -27 5 -17 2 9 2 25 0 35 -3 9 -5 1 -5 -18z"/>
<path d="M6211 7114 c0 -11 3 -14 6 -6 3 7 2 16 -1 19 -3 4 -6 -2 -5 -13z"/>
<path d="M2791 7104 c0 -11 3 -14 6 -6 3 7 2 16 -1 19 -3 4 -6 -2 -5 -13z"/>
<path d="M2361 7094 c0 -11 3 -14 6 -6 3 7 2 16 -1 19 -3 4 -6 -2 -5 -13z"/>
<path d="M5832 7045 c0 -16 2 -22 5 -12 2 9 2 23 0 30 -3 6 -5 -1 -5 -18z"/>
<path d="M2782 7040 c0 -14 2 -19 5 -12 2 6 2 18 0 25 -3 6 -5 1 -5 -13z"/>
<path d="M6223 6975 c0 -22 2 -30 4 -17 2 12 2 30 0 40 -3 9 -5 -1 -4 -23z"/>
<path d="M2772 6980 c0 -14 2 -19 5 -12 2 6 2 18 0 25 -3 6 -5 1 -5 -13z"/>
<path d="M5842 6955 c0 -16 2 -22 5 -12 2 9 2 23 0 30 -3 6 -5 -1 -5 -18z"/>
<path d="M2352 6940 c0 -19 2 -27 5 -17 2 9 2 25 0 35 -3 9 -5 1 -5 -18z"/>
<path d="M2761 6924 c0 -11 3 -14 6 -6 3 7 2 16 -1 19 -3 4 -6 -2 -5 -13z"/>
<path d="M5851 6884 c0 -11 3 -14 6 -6 3 7 2 16 -1 19 -3 4 -6 -2 -5 -13z"/>
<path d="M2752 6860 c0 -14 2 -19 5 -12 2 6 2 18 0 25 -3 6 -5 1 -5 -13z"/>
<path d="M5862 6820 c0 -14 2 -19 5 -12 2 6 2 18 0 25 -3 6 -5 1 -5 -13z"/>
<path d="M5872 6760 c0 -14 2 -19 5 -12 2 6 2 18 0 25 -3 6 -5 1 -5 -13z"/>
<path d="M2731 6754 c0 -11 3 -14 6 -6 3 7 2 16 -1 19 -3 4 -6 -2 -5 -13z"/>
<path d="M2721 6704 c0 -11 3 -14 6 -6 3 7 2 16 -1 19 -3 4 -6 -2 -5 -13z"/>
<path d="M5891 6654 c0 -11 3 -14 6 -6 3 7 2 16 -1 19 -3 4 -6 -2 -5 -13z"/>
<path d="M2353 6600 c0 -25 2 -35 4 -22 2 12 2 32 0 45 -2 12 -4 2 -4 -23z"/>
<path d="M2701 6604 c0 -11 3 -14 6 -6 3 7 2 16 -1 19 -3 4 -6 -2 -5 -13z"/>
<path d="M5901 6604 c0 -11 3 -14 6 -6 3 7 2 16 -1 19 -3 4 -6 -2 -5 -13z"/>
<path d="M6223 6560 c0 -25 2 -35 4 -22 2 12 2 32 0 45 -2 12 -4 2 -4 -23z"/>
<path d="M2691 6554 c0 -11 3 -14 6 -6 3 7 2 16 -1 19 -3 4 -6 -2 -5 -13z"/>
<path d="M5911 6554 c0 -11 3 -14 6 -6 3 7 2 16 -1 19 -3 4 -6 -2 -5 -13z"/>
<path d="M5921 6514 c0 -11 3 -14 6 -6 3 7 2 16 -1 19 -3 4 -6 -2 -5 -13z"/>
<path d="M2681 6504 c0 -11 3 -14 6 -6 3 7 2 16 -1 19 -3 4 -6 -2 -5 -13z"/>
<path d="M2671 6464 c0 -11 3 -14 6 -6 3 7 2 16 -1 19 -3 4 -6 -2 -5 -13z"/>
<path d="M2661 6424 c0 -11 3 -14 6 -6 3 7 2 16 -1 19 -3 4 -6 -2 -5 -13z"/>
<path d="M5941 6424 c0 -11 3 -14 6 -6 3 7 2 16 -1 19 -3 4 -6 -2 -5 -13z"/>
<path d="M2363 6395 c0 -22 2 -30 4 -17 2 12 2 30 0 40 -3 9 -5 -1 -4 -23z"/>
<path d="M6213 6365 c0 -22 2 -30 4 -17 2 12 2 30 0 40 -3 9 -5 -1 -4 -23z"/>
<path d="M5961 6344 c0 -11 3 -14 6 -6 3 7 2 16 -1 19 -3 4 -6 -2 -5 -13z"/>
<path d="M2372 6295 c0 -16 2 -22 5 -12 2 9 2 23 0 30 -3 6 -5 -1 -5 -18z"/>
<path d="M2631 6294 c0 -11 3 -14 6 -6 3 7 2 16 -1 19 -3 4 -6 -2 -5 -13z"/>
<path d="M6202 6275 c0 -16 2 -22 5 -12 2 9 2 23 0 30 -3 6 -5 -1 -5 -18z"/>
<path d="M2382 6205 c0 -16 2 -22 5 -12 2 9 2 23 0 30 -3 6 -5 -1 -5 -18z"/>
<path d="M6192 6185 c0 -16 2 -22 5 -12 2 9 2 23 0 30 -3 6 -5 -1 -5 -18z"/>
<path d="M2391 6124 c0 -11 3 -14 6 -6 3 7 2 16 -1 19 -3 4 -6 -2 -5 -13z"/>
<path d="M6182 6120 c0 -14 2 -19 5 -12 2 6 2 18 0 25 -3 6 -5 1 -5 -13z"/>
<path d="M2402 6060 c0 -14 2 -19 5 -12 2 6 2 18 0 25 -3 6 -5 1 -5 -13z"/>
<path d="M2411 6004 c0 -11 3 -14 6 -6 3 7 2 16 -1 19 -3 4 -6 -2 -5 -13z"/>
<path d="M2536 5995 c-9 -26 -7 -32 5 -12 6 10 9 21 6 23 -2 3 -7 -2 -11 -11z"/>
<path d="M6161 5984 c0 -11 3 -14 6 -6 3 7 2 16 -1 19 -3 4 -6 -2 -5 -13z"/>
<path d="M2421 5944 c0 -11 3 -14 6 -6 3 7 2 16 -1 19 -3 4 -6 -2 -5 -13z"/>
<path d="M6151 5934 c0 -11 3 -14 6 -6 3 7 2 16 -1 19 -3 4 -6 -2 -5 -13z"/>
<path d="M6142 5880 c0 -14 2 -19 5 -12 2 6 2 18 0 25 -3 6 -5 1 -5 -13z"/>
<path d="M2486 5873 c-6 -14 -5 -15 5 -6 7 7 10 15 7 18 -3 3 -9 -2 -12 -12z"/>
<path d="M6100 5885 c0 -5 5 -17 10 -25 5 -8 10 -10 10 -5 0 6 -5 17 -10 25
-5 8 -10 11 -10 5z"/>
<path d="M6126 5841 c-4 -7 -5 -15 -2 -18 9 -9 19 4 14 18 -4 11 -6 11 -12 0z"/>
<path d="M2455 5819 c-4 -6 -5 -12 -2 -15 2 -3 7 2 10 11 7 17 1 20 -8 4z"/>
<path d="M1530 4743 c-21 -27 -21 -30 -18 -443 l4 -415 27 -81 c64 -193 208
-337 401 -401 l81 -27 415 -4 c413 -3 416 -3 443 18 34 27 37 80 7 110 -19 19
-33 20 -418 20 -433 0 -464 3 -566 58 -65 35 -153 123 -188 188 -55 102 -58
133 -58 566 0 385 -1 399 -20 418 -30 30 -83 27 -110 -7z"/>
<path d="M6974 4762 c-31 -21 -34 -54 -34 -444 0 -424 -2 -444 -55 -547 -33
-67 -122 -157 -191 -193 -102 -55 -133 -58 -564 -58 l-397 0 -21 -23 c-31 -33
-29 -80 5 -107 27 -21 30 -21 443 -17 337 3 425 7 467 19 185 56 324 174 405
344 51 110 58 176 58 596 0 433 -1 438 -75 438 -16 0 -35 -4 -41 -8z"/>
<path d="M5722 2650 c0 -19 2 -27 5 -17 2 9 2 25 0 35 -3 9 -5 1 -5 -18z"/>
<path d="M2886 2545 c14 -171 89 -480 189 -780 35 -104 70 -207 79 -227 15
-35 17 -37 46 -27 17 6 27 16 23 22 -3 6 -1 7 5 3 11 -7 48 8 440 178 122 53
227 94 231 91 5 -3 54 -87 110 -187 l100 -183 -90 -503 c-50 -277 -88 -507
-85 -510 8 -7 733 -8 741 0 3 3 -35 232 -85 509 l-91 504 92 190 c51 105 93
191 94 193 1 1 155 -63 341 -144 186 -81 354 -153 371 -160 33 -14 33 -14 49
23 35 81 154 455 188 588 38 149 49 200 71 335 21 122 17 163 -5 50 -26 -140
-65 -296 -116 -465 -44 -145 -138 -412 -148 -423 -5 -4 -240 96 -909 387
l-227 99 -138 -60 c-75 -33 -179 -78 -229 -100 l-93 -40 26 -44 c14 -24 22
-44 16 -44 -5 0 -14 10 -21 23 -11 21 -11 20 -7 -8 3 -16 3 -24 0 -17 -3 6
-10 10 -15 6 -5 -3 -5 6 1 20 9 25 5 56 -9 56 -3 0 -152 -63 -330 -140 -178
-77 -326 -140 -330 -140 -9 0 -69 161 -127 340 -47 143 -124 441 -149 575
l-15 80 6 -70z m1845 -679 c-11 -19 -17 -37 -13 -42 4 -4 2 -4 -5 0 -9 5 -8
15 4 41 9 19 20 35 25 35 4 0 -1 -15 -11 -34z m-925 -1 c-1 -8 -5 -17 -8 -21
-5 -4 -4 16 1 34 3 9 9 -1 7 -13z m959 -15 c-3 -6 4 -14 16 -18 l23 -9 -22 -5
c-12 -4 -20 -2 -17 2 3 5 1 11 -4 15 -5 3 -14 -3 -20 -12 -6 -10 -11 -14 -11
-9 0 5 7 18 17 28 17 19 28 24 18 8z m71 -38 c-17 -16 -18 -16 -5 5 7 12 15
20 18 17 3 -2 -3 -12 -13 -22z m64 8 c0 -5 9 -12 21 -15 11 -4 18 -9 15 -12
-3 -3 -18 3 -33 13 -15 10 -32 17 -36 16 -5 -1 -6 2 -2 7 6 11 35 3 35 -9z
m-1205 -10 c3 -6 -1 -7 -9 -4 -18 7 -21 14 -7 14 6 0 13 -4 16 -10z m49 -20
c-6 -6 -15 -5 -24 1 -13 9 -12 10 3 5 9 -3 17 0 17 6 0 6 3 8 7 5 4 -4 2 -12
-3 -17z m1061 9 c11 -16 1 -19 -13 -3 -7 8 -8 14 -3 14 5 0 13 -5 16 -11z
m-1186 -13 c-2 -2 -15 -9 -29 -15 -24 -11 -24 -11 -6 3 16 13 49 24 35 12z
m141 -11 c-7 -8 -17 -15 -23 -15 -6 0 -2 7 9 15 25 19 30 19 14 0z m1118 -10
c-3 -3 -9 2 -12 12 -6 14 -5 15 5 6 7 -7 10 -15 7 -18z m118 13 c4 -6 3 -8 -3
-5 -6 4 -13 0 -16 -7 -3 -8 -2 -17 4 -20 5 -2 4 -3 -3 -2 -7 2 -19 -4 -27 -13
-10 -12 -10 -10 1 9 33 58 32 57 44 38z m-1320 -18 c0 -12 -4 -16 -9 -11 -5 5
-6 14 -3 20 10 15 12 14 12 -9z m1278 11 c-9 -9 -34 -9 -34 -1 0 5 9 8 20 7
10 -1 17 -3 14 -6z m-1424 -26 c0 -2 -10 -9 -22 -15 -22 -11 -22 -10 -4 4 21
17 26 19 26 11z m1395 -5 c3 -6 -1 -7 -9 -4 -18 7 -21 14 -7 14 6 0 13 -4 16
-10z m-1295 -4 c0 -2 -7 -7 -16 -10 -8 -3 -12 -2 -9 4 6 10 25 14 25 6z m1374
-8 c-5 -8 -2 -9 9 -5 24 9 21 0 -4 -14 -15 -8 -19 -8 -15 0 4 6 0 11 -11 12
-16 0 -16 1 2 9 27 12 27 12 19 -2z m-1554 -25 c0 -1 -8 -7 -18 -12 -13 -7
-19 -6 -19 2 0 7 9 13 19 13 10 0 18 -1 18 -3z m2 -25 c-9 -9 -9 -15 1 -27 11
-14 10 -14 -6 -2 -13 10 -15 17 -6 27 6 8 14 14 17 14 3 0 1 -5 -6 -12z m1735
-7 c7 7 13 9 13 7 0 -3 -10 -13 -22 -24 -13 -10 -20 -15 -16 -10 4 5 2 16 -4
25 -10 13 -10 14 2 4 10 -9 17 -10 27 -2z m37 -27 c3 -8 2 -12 -4 -9 -6 3 -10
10 -10 16 0 14 7 11 14 -7z m-1904 -14 c-8 -5 -19 -10 -25 -10 -5 0 -3 5 5 10
8 5 20 10 25 10 6 0 3 -5 -5 -10z m1957 4 c-3 -3 -12 -4 -19 -1 -8 3 -5 6 6 6
11 1 17 -2 13 -5z m-1877 -8 c0 -3 -4 -8 -10 -11 -5 -3 -10 -1 -10 4 0 6 5 11
10 11 6 0 10 -2 10 -4z m1917 -3 c-12 -3 -16 -10 -12 -21 5 -13 3 -14 -6 -5
-14 14 -3 33 19 32 15 -1 14 -2 -1 -6z m-2111 -18 c-1 -8 -5 -17 -8 -21 -5 -4
-4 16 1 34 3 9 9 -1 7 -13z m2198 7 c3 -5 -1 -9 -9 -9 -8 0 -12 4 -9 9 3 4 7
8 9 8 2 0 6 -4 9 -8z m-70 -23 c-3 -6 5 -9 21 -7 20 2 28 -2 30 -15 2 -9 -1
-15 -6 -11 -5 3 -7 10 -4 15 4 5 -7 6 -25 3 -26 -6 -30 -4 -30 15 0 13 4 19
10 16 6 -4 8 -11 4 -16z m113 1 c-4 -25 -13 -34 -27 -25 -8 5 -6 13 7 25 23
24 23 24 20 0z m-2137 -4 c0 -2 -8 -10 -17 -17 -16 -13 -17 -12 -4 4 13 16 21
21 21 13z m-116 -27 c-4 -8 1 -9 17 -5 20 6 21 5 6 -4 -19 -12 -41 -4 -32 11
4 5 8 9 11 9 3 0 2 -5 -2 -11z m2220 -25 c3 -8 2 -12 -4 -9 -6 3 -10 10 -10
16 0 14 7 11 14 -7z"/>
</g>
</svg>
